HIERARCHY
ROOT pelvis
{
  OFFSET 0 100 0
  CHANNELS 6 Xposition Yposition Zposition Zrotation Xrotation Yrotation
  JOINT pelvis_right_femur
  {
    OFFSET -10.78128 -3.44521 -0.5502486
    CHANNELS 3 Zrotation Xrotation Yrotation
    JOINT right_femur_tibia
    {
      OFFSET -0.8047443 -44.0398 -0.1307829
      CHANNELS 3 Zrotation Xrotation Yrotation
      JOINT right_tibia_foot
      {
        OFFSET 3.006224 -47.83518 -5
        CHANNELS 3 Zrotation Xrotation Yrotation
        End Site
        {
          OFFSET 0 -5 15
        }
      }
    }
  }
  JOINT pelvis_left_femur
  {
    OFFSET 10.78128 -3.44521 -0.5502486
    CHANNELS 3 Zrotation Xrotation Yrotation
    JOINT left_femur_tibia
    {
      OFFSET 0.8047443 -44.0398 -0.1307829
      CHANNELS 3 Zrotation Xrotation Yrotation
      JOINT left_tibia_foot
      {
        OFFSET -4.370144 -48.10324 -4.275266
        CHANNELS 3 Zrotation Xrotation Yrotation
        End Site
        {
          OFFSET 0 -5 15
        }
      }
    }
  }
  JOINT pelvis_spine1
  {
    OFFSET 0 6.468898 -3.129235
    CHANNELS 3 Zrotation Xrotation Yrotation
    JOINT spine1
    {
      OFFSET 0 23.15396 4.99043
      CHANNELS 3 Zrotation Xrotation Yrotation
      JOINT spine2
      {
        OFFSET 0 20.79997 -5.064912
        CHANNELS 3 Zrotation Xrotation Yrotation
        JOINT neck
        {
          OFFSET 0 14.38658 9.616178
          CHANNELS 3 Zrotation Xrotation Yrotation
          End Site
          {
            OFFSET 0 20 0
          }
        }
      }
      JOINT right_manubrium
      {
        OFFSET -5.722621 16.35077 3.967754
        CHANNELS 3 Zrotation Xrotation Yrotation
        JOINT right_clavicle
        {
          OFFSET -13.16364 1.694482 -4.693211
          CHANNELS 3 Zrotation Xrotation Yrotation
          JOINT right_humerus
          {
            OFFSET -28.5034 -0.3100689 -2.792744
            CHANNELS 3 Zrotation Xrotation Yrotation
            JOINT right_radius
            {
              OFFSET -25.15693 0.02248979 -1.271978
              CHANNELS 3 Zrotation Xrotation Yrotation
              End Site
              {
                OFFSET -15 0 0
              }
            }
          }
        }
      }
      JOINT left_manubrium
      {
        OFFSET 5.722621 16.35077 3.967754
        CHANNELS 3 Zrotation Xrotation Yrotation
        JOINT left_clavicle
        {
          OFFSET 13.16364 1.694482 -4.693211
          CHANNELS 3 Zrotation Xrotation Yrotation
          JOINT left_humerus
          {
            OFFSET 29.39168 -1.063119 -2.237045
            CHANNELS 3 Zrotation Xrotation Yrotation
            JOINT left_radius
            {
              OFFSET 24.59957 -0.9528479 0.9047498
              CHANNELS 3 Zrotation Xrotation Yrotation
              End Site
              {
                OFFSET 15 -0 -0
              }
            }
          }
        }
      }
    }
  }
}
MOTION
Frames: 17
Frame Time: 0.0416666666667
0 103.5113 0 -0.01321821 0.2963734 -0.1834989 4.339332 -16.78244 9.601532 -0 36.94443 -0 -5.973782 -14.61215 -2.76025 -6.610893 7.672108 -21.05545 -0 5.681782 -0 8.217237 -18.26968 27.07208 -2.988355 -5.177376 5.671955 2.454393 10.64943 -8.386782 1.30993 21.07013 6.532838 2.988659 -25.49319 9.496331 6.789694 -20.4954 11.84186 84.26275 33.19615 -18.48319 -0 0 17.864 -8.807005 10.4063 3.650797 8.875808 -22.29648 1.306515 -95.15257 20.0058 22.60002 0 0 -10.78804 16.17729 19.37128 -4.672088
0.3529015 103.9651 1.842824 -0.2640644 0.5618103 -0.296568 4.774603 -19.03231 9.20996 -0 35.79857 -0 -6.164556 -13.79639 -2.672902 -6.320074 8.647233 -20.78222 -0 6.126237 -0 7.527699 -18.96786 26.16529 -2.872897 -4.709666 5.270416 2.611105 10.3431 -8.46734 1.294467 21.05516 6.645081 3.045641 -25.73668 9.543137 6.597651 -20.13153 11.76265 84.64065 33.20808 -18.9566 -0 0 17.23675 -8.755528 10.0979 3.652057 8.690788 -22.19804 1.058149 -94.73789 20.69219 22.06719 0 0 -11.65767 15.38801 19.23143 -3.8329
0.6641833 104.364 3.994315 -0.6517532 1.170258 -0.336523 5.530661 -22.34597 8.588081 -0 33.08206 -0 -6.192332 -12.59027 -2.179787 -5.945859 9.323117 -20.06006 -0 7.370751 -0 7.516067 -19.23289 25.06261 -2.619093 -4.244814 4.957505 2.856348 10.28835 -8.576218 1.285213 20.83596 6.812 3.177289 -26.14183 9.627374 6.475612 -19.76189 11.83516 84.90485 33.01565 -19.47734 -0 0 16.42307 -8.956212 10.19021 3.814429 8.723224 -22.38959 0.7414043 -93.96694 20.26477 20.98213 0 0 -12.80296 16.23121 18.48513 -4.813143
0.924651 104.6925 6.302556 -0.8683149 2.092056 -0.2818021 6.359318 -25.5411 9.039564 -0 30.74694 -0 -5.850361 -13.03471 -2.305684 -5.790093 10.5024 -20.1596 -0 7.534398 -0 7.391511 -20.01177 24.58525 -2.628445 -3.724299 4.756134 3.174111 9.681984 -8.7422 1.385369 20.54668 6.837275 3.134162 -26.57381 9.867711 6.444767 -19.29749 11.61044 85.08391 34.16579 -19.97934 -0 0 16.20566 -7.831972 9.776462 3.304978 8.558066 -21.88973 0.9046901 -93.31327 20.9618 20.23218 0 0 -14.0549 15.66926 17.57868 -4.284378
1.140809 104.9546 8.837228 -1.086051 3.171982 -0.08852772 7.372647 -28.87686 9.692304 -0 28.10164 -0 -5.45511 -13.24371 -2.422683 -5.706163 11.73836 -20.28384 -0 7.873417 -0 7.383199 -20.69786 24.17316 -2.686583 -3.106315 4.544299 3.518101 9.04265 -8.86167 1.529304 20.18309 6.908653 3.13092 -27.04877 10.20878 6.416381 -18.74041 11.33408 85.28276 35.66068 -20.4277 -0 0 15.90462 -6.453698 9.329192 2.769772 8.381865 -21.28039 1.13879 -92.5429 21.68365 19.33434 0 0 -15.47747 15.20334 16.2325 -3.864983
1.309399 105.1765 11.55062 -1.298664 4.242914 0.2820738 8.496857 -31.73114 10.91028 -0 26.30711 -0 -5.032809 -13.85474 -2.899543 -5.650132 13.13232 -20.83369 -0 7.936864 -0 6.820626 -21.61678 23.90877 -2.853397 -2.355751 4.251498 3.861302 8.091842 -8.903187 1.789145 19.86403 6.909784 3.078007 -27.46335 10.6709 6.397491 -18.03317 10.83093 85.34189 37.60219 -20.62185 -0 0 15.95883 -4.471996 8.601775 1.961282 8.081505 -20.16978 1.636489 -92.10202 23.31017 18.75902 0 0 -16.23889 13.76242 14.89008 -2.414476
1.449953 105.3621 14.55642 -1.596016 4.988127 0.8336849 9.447764 -34.00218 11.48081 -0 24.35285 -0 -4.900419 -13.32342 -3.136399 -5.502153 14.18752 -20.88836 -0 8.821946 -0 5.633749 -22.39014 23.0165 -2.893156 -1.628931 3.854308 4.122862 7.427201 -8.871235 1.986485 19.61463 7.004073 3.159253 -27.72166 10.99947 6.32097 -17.31748 10.4471 85.38373 38.66086 -20.74885 -0 0 15.69796 -3.330121 8.23502 1.593545 7.886386 -19.44636 1.882109 -91.80531 24.72931 18.20868 0 0 -16.81573 12.35145 13.78602 -0.9680521
1.626164 105.4279 18.10054 -1.936857 5.176749 1.48012 9.707769 -35.73054 10.05192 -0 20.51808 -0 -5.353278 -10.17206 -2.489786 -5.285039 14.5425 -19.40656 -0 10.83675 -0 4.175305 -22.85179 20.90124 -2.617268 -1.202928 3.493085 4.231717 7.706324 -8.890769 1.824296 19.35764 7.359538 3.506283 -27.86406 10.82497 6.063569 -16.98443 10.64255 85.84811 37.69882 -21.28661 -0 0 14.31047 -4.592964 8.822822 2.494166 8.019412 -20.25725 1.296449 -91.13698 24.3762 17.39888 0 0 -18.71008 11.90255 13.22382 -0.4103676
1.961905 104.9652 22.75078 -1.677892 3.814408 1.989073 7.695397 -35.54442 3.817141 -0 11.25078 -0 -6.918054 -1.883783 -0.01989652 -5.457675 14.05447 -14.58097 -0 13.33886 -0 3.796053 -22.35118 17.22865 -1.890844 -1.356963 3.500195 3.784083 9.905591 -8.862906 0.8988988 19.29014 8.13872 4.052823 -27.42222 9.604853 4.422672 -17.83449 11.94223 88.63651 32.64131 -23.08461 -0 0 9.896139 -10.94996 10.20112 6.306568 8.387345 -24.25679 -1.491703 -88.33255 19.6661 15.08866 0 0 -26.28448 13.70682 12.72119 -2.005699
2.310662 103.6156 28.87016 -0.0869909 0.03814035 2.388017 3.813579 -30.9522 -4.746938 -0 0.6864814 -0 -9.176516 5.875785 1.461827 -6.225404 15.74906 -8.687119 -0 14.18418 -0 3.229715 -21.62197 13.59907 -1.154257 -2.248507 3.53254 2.440992 11.57771 -8.367221 0.2623038 20.71435 7.805261 3.384029 -24.98909 7.849717 -0.3824399 -19.04399 12.26967 94.46123 23.65134 -25.43059 -0 0 4.036116 -18.89082 9.329079 10.136 7.761647 -28.45235 -5.555346 -83.65612 15.03211 10.7353 0 0 -37.67476 13.60215 13.06708 -1.924866
2.426778 102.5924 35.9454 0.3580256 -1.971119 2.897444 3.649925 -28.17332 -5.534923 -0 1.499728 -0 -10.76149 6.576325 -0.9199398 -6.267931 20.08076 -7.075605 -0 16.40864 -0 1.252662 -21.12387 12.83536 -0.5445585 -3.030049 2.83229 1.857906 10.31901 -8.297975 0.9353455 22.16018 6.083108 1.741771 -23.5119 7.494375 -4.092411 -18.60366 10.69105 98.41515 20.12181 -26.43561 -0 0 2.065563 -19.12938 7.226988 8.959986 6.498279 -27.94196 -6.076029 -81.45325 15.7973 8.25109 0 0 -40.0997 10.47848 14.12791 0.713321
2.421839 102.5583 43.2607 -0.523382 -2.281641 3.173446 5.759746 -26.90319 -2.498095 -0 7.041949 -0 -11.49311 5.581775 -2.633929 -5.552292 20.78915 -7.390526 -0 24.45725 -0 0.01181505 -18.66326 13.44216 0.3582071 -3.330732 2.569668 1.925149 10.13508 -8.667615 1.356678 22.1706 5.464264 1.20556 -23.8058 7.897036 -4.630485 -18.35183 10.0941 99.51306 20.9666 -26.92033 -0 0 2.612568 -17.35001 6.87113 7.279579 5.814032 -26.81779 -5.170982 -82.19591 16.43437 9.242544 0 0 -36.82964 9.989549 13.91527 0.7288572
2.387693 103.3758 50.52022 -1.310089 -3.146989 3.075455 7.678424 -23.92767 0.483346 -0 11.14125 -0 -11.83054 4.443357 -3.329828 -4.800299 18.00631 -7.353583 -0 36.37646 -0 -0.3887714 -14.81183 14.55895 1.248191 -3.183107 3.012489 1.841914 11.40226 -8.960804 1.428647 21.76567 5.528601 1.282917 -24.04331 8.313815 -4.52844 -18.809 10.35925 100.2122 22.1832 -27.23342 -0 0 3.521142 -16.58962 7.41912 6.262704 5.380634 -26.56209 -4.72764 -83.40714 15.55469 11.23186 0 0 -33.31169 11.64026 12.78089 -1.412439
2.354174 104.7943 57.53821 -1.56606 -4.589015 2.624911 8.624574 -19.39676 2.47582 -0 12.76166 -0 -12.0685 3.035403 -3.610385 -4.097981 13.16774 -6.865706 -0 46.95732 -0 -0.2133493 -11.12697 15.80413 1.757011 -2.648539 3.859694 1.546313 13.01986 -8.982801 1.402283 21.44754 5.561158 1.366528 -23.86291 8.458504 -4.654919 -19.74023 10.93802 100.8544 23.03901 -27.00355 -0 0 4.634 -16.5921 8.049 5.791691 4.891728 -26.59288 -4.826949 -84.21111 14.17174 13.38646 0 0 -30.65552 13.47727 11.58925 -3.60764
2.283804 106.4737 64.15965 -1.419384 -6.23829 1.949738 8.754523 -13.9491 3.339605 -0 12.4314 -0 -12.31003 1.266772 -3.769601 -3.2927 7.494179 -6.2377 -0 53.48493 -0 0.08385385 -8.350671 16.97934 1.820729 -1.975262 4.739678 1.196279 14.24886 -8.739093 1.429391 21.47248 5.23921 1.235956 -23.33126 8.268636 -5.038451 -20.81082 11.49247 101.0334 23.3106 -25.98346 -0 0 6.125444 -17.00964 8.511445 5.668671 4.377271 -26.36949 -5.171438 -84.89478 13.21429 15.52453 0 0 -27.89835 14.63418 11.20882 -5.148721
2.17308 108.1234 70.31954 -1.141758 -7.555329 1.186311 8.495703 -8.15451 3.710225 -0 11.15079 -0 -12.32144 -0.9818828 -3.837189 -2.364239 1.509828 -5.689768 -0 55.29928 -0 0.22012 -6.514935 18.07825 1.584169 -1.249766 5.571582 0.9115955 14.8779 -8.355675 1.458544 21.61205 4.701132 0.9156028 -22.86532 7.936074 -5.436163 -22.01522 11.90406 100.6361 23.74143 -24.29931 -0 0 8.28291 -17.31245 8.701093 5.715788 3.93712 -25.6365 -5.292551 -85.69479 12.76536 17.90447 0 0 -24.66221 15.10008 11.26073 -6.149214
2.043915 109.4544 76.05146 -0.8307789 -8.49298 0.4318484 8.033189 -2.279717 3.662288 -0 9.327805 -0 -12.09273 -3.42316 -3.816257 -1.321691 -4.396516 -5.171612 -0 52.58436 -0 0.2787447 -5.493393 19.10958 1.179333 -0.6490183 6.296526 0.6996276 15.00662 -7.899103 1.491856 21.80255 4.007293 0.4459992 -22.50023 7.507389 -5.869621 -23.38926 12.11173 99.70891 24.14047 -22.05801 -0 0 11.04082 -17.68045 8.713278 6.066605 3.596969 -24.53347 -5.20205 -86.64345 12.68024 20.50923 0 0 -21.15033 14.87577 11.69041 -6.50761
